<?xml version="1.0" encoding="utf-8"?>
<!-- Generator: Adobe Illustrator 21.0.0, SVG Export Plug-In . SVG Version: 6.00 Build 0)  -->
<svg version="1.1" id="Calque_1" xmlns="http://www.w3.org/2000/svg" xmlns:xlink="http://www.w3.org/1999/xlink" x="0px" y="0px"
	 viewBox="0 0 194 202" style="enable-background:new 0 0 194 202;" xml:space="preserve">
<style type="text/css">
	.st0{fill:#B72323;}
	.st1{fill:#931919;}
	.st2{fill:#282828;}
	.st3{fill:#515151;}
	.st4{opacity:0.39;}
	.st5{fill:#9BEAE4;}
	.st6{fill:#DD9D6C;}
	.st7{opacity:9.000000e-02;}
	.st8{fill:#353535;}
	.st9{opacity:0.29;}
	.st10{clip-path:url(#SVGID_2_);fill:#DD9D6C;}
	.st11{fill:#50AD75;}
	.st12{opacity:0.32;}
	.st13{clip-path:url(#SVGID_4_);}
	.st14{fill:#E23333;}
	.st15{fill:#FFFFFF;}
	.st16{opacity:0.49;}
	.st17{opacity:0.39;clip-path:url(#SVGID_6_);fill:#FFFFFF;}
	.st18{opacity:0.39;fill:#FFFFFF;}
	.st19{fill:#919191;}
	.st20{fill:#4AA9FF;}
	.st21{opacity:0.18;}
	.st22{clip-path:url(#SVGID_8_);}
	.st23{fill:#C13333;}
	.st24{clip-path:url(#SVGID_10_);}
</style>
<path class="st0" d="M27.6,116C14.3,104,19,90,16,76S2,61,0,60v142l32-76L27.6,116z"/>
<path class="st1" d="M27.6,116c0,0-27.6,34.5-27.6,39s0,30,0,30L27.6,116z"/>
<path class="st1" d="M165,116l-61.7,2.6c-5.5,0.2-11-0.4-16.3-2L38,102l3,29l115,5L165,116z"/>
<g>
	<rect x="30" y="150" class="st2" width="126" height="52"/>
</g>
<g>
	<g>
		<rect x="64" y="155" class="st3" width="2" height="19"/>
	</g>
	<g>
		<rect x="66" y="172" class="st3" width="19" height="2"/>
	</g>
	<g>
		<rect x="85" y="172" class="st3" width="2" height="26"/>
	</g>
	<g>
		<rect x="78" y="164" class="st3" width="2" height="9"/>
	</g>
	<g>
		<rect x="73" y="173" class="st3" width="2" height="18"/>
	</g>
	<g>
		<rect x="87" y="184" class="st3" width="15" height="2"/>
	</g>
</g>
<g>
	<g>
		<rect x="103" y="175" class="st3" width="2" height="19"/>
	</g>
	<g>
		<rect x="105" y="192" class="st3" width="19" height="2"/>
	</g>
	<g>
		<rect x="124" y="192" class="st3" width="2" height="10"/>
	</g>
	<g>
		<rect x="117" y="184" class="st3" width="2" height="9"/>
	</g>
</g>
<g>
	<g>
		<rect x="142" y="152" class="st3" width="19" height="2"/>
	</g>
	<g>
		<rect x="142" y="154" class="st3" width="2" height="19"/>
	</g>
	<g>
		<rect x="118" y="173" class="st3" width="26" height="2"/>
	</g>
	<g>
		<rect x="143" y="166" class="st3" width="9" height="2"/>
	</g>
	<g>
		<rect x="125" y="161" class="st3" width="18" height="2"/>
	</g>
	<g>
		<rect x="130" y="175" class="st3" width="2" height="15"/>
	</g>
</g>
<g>
	<g>
		<rect x="97" y="158" class="st3" width="2" height="11"/>
	</g>
	<g>
		<rect x="99" y="167" class="st3" width="19" height="2"/>
	</g>
	<g>
		<rect x="118" y="167" class="st3" width="2" height="26"/>
	</g>
	<g>
		<rect x="111" y="159" class="st3" width="2" height="9"/>
	</g>
	<g>
		<rect x="106" y="168" class="st3" width="2" height="18"/>
	</g>
	<g>
		<rect x="120" y="179" class="st3" width="15" height="2"/>
	</g>
</g>
<g>
	<path class="st3" d="M150.5,155h-107c-4.7,0-8.5-3.8-8.5-8.5v-9c0-4.7,3.8-8.5,8.5-8.5h107c4.7,0,8.5,3.8,8.5,8.5v9
		C159,151.2,155.2,155,150.5,155z"/>
</g>
<g class="st4">
	<path class="st5" d="M153,131H97H41V69c0-30.9,25.1-56,56-56h0c30.9,0,56,25.1,56,56V131z"/>
</g>
<path class="st6" d="M135.8,58.6c0.3-1.1,0.5-2.3,0.5-3.5c0-7.5-6-13.5-13.5-13.5c-0.7,0-1.4,0.1-2.1,0.2c0.1-0.7,0.1-1.4,0.1-2.1
	c0-10.3-8.4-18.7-18.7-18.7c-9.4,0-17.1,6.9-18.4,15.9c-2.5-2.6-6-4.3-9.9-4.3c-7.5,0-13.5,6-13.5,13.5c0,0.3,0,0.7,0.1,1
	c-7,4.6-11.6,12.5-11.6,21.5c0,11.6,7.6,21.4,18.1,24.6c-0.1,0.6-0.1,1.2-0.1,1.8c0,7.5,6,13.5,13.5,13.5c0.7,0,1.4-0.1,2.1-0.2
	c2.3,1.2,4.7,2.1,7.4,2.5c3.2,4,7.3,11.2,7.3,22.2h4c0-14.6,7.2-22.6,10-25.1c1.3,0.4,2.6,0.6,4,0.6c6.1,0,11.3-4.1,12.9-9.6
	c9.9-2.4,17.3-11.3,17.3-21.9C145.2,69.4,141.5,62.7,135.8,58.6z M106,107c0.4-0.3,0.9-0.6,1.3-0.9c0.5,0.3,1,0.7,1.6,0.9H106z"/>
<g class="st7">
	<g>
		<path class="st8" d="M135.8,58.6c0.3-1.1,0.5-2.3,0.5-3.5c0-7.5-6-13.5-13.5-13.5c-0.7,0-1.4,0.1-2.1,0.2c0.1-0.7,0.1-1.4,0.1-2.1
			c0-10.3-8.4-18.7-18.7-18.7c-9.4,0-17.1,6.9-18.4,15.9c-2.5-2.6-6-4.3-9.9-4.3c-7.5,0-13.5,6-13.5,13.5c0,0.3,0,0.7,0.1,1
			c-7,4.6-11.6,12.5-11.6,21.5c0,11.6,7.6,21.4,18.1,24.6c-0.1,0.6-0.1,1.2-0.1,1.8c0,7.5,6,13.5,13.5,13.5c0.7,0,1.4-0.1,2.1-0.2
			c2.3,1.2,4.7,2.1,7.4,2.5c3.2,4,7.3,11.2,7.3,22.2h4c0-14.6,7.2-22.6,10-25.1c1.3,0.4,2.6,0.6,4,0.6c6.1,0,11.3-4.1,12.9-9.6
			c9.9-2.4,17.3-11.3,17.3-21.9C145.2,69.4,141.5,62.7,135.8,58.6z M106,107c0.4-0.3,0.9-0.6,1.3-0.9c0.5,0.3,1,0.7,1.6,0.9H106z"/>
	</g>
</g>
<g class="st9">
	<path class="st8" d="M111,107c0.4-0.3,0.9-0.6,1.3-0.9c0.5,0.3,1,0.7,1.6,0.9H111z"/>
</g>
<g>
	<defs>
		<path id="SVGID_1_" d="M135.8,58.6c0.3-1.1,0.5-2.3,0.5-3.5c0-7.5-6-13.5-13.5-13.5c-0.7,0-1.4,0.1-2.1,0.2
			c0.1-0.7,0.1-1.4,0.1-2.1c0-10.3-8.4-18.7-18.7-18.7c-9.4,0-17.1,6.9-18.4,15.9c-2.5-2.6-6-4.3-9.9-4.3c-7.5,0-13.5,6-13.5,13.5
			c0,0.3,0,0.7,0.1,1c-7,4.6-11.6,12.5-11.6,21.5c0,11.6,7.6,21.4,18.1,24.6c-0.1,0.6-0.1,1.2-0.1,1.8c0,7.5,6,13.5,13.5,13.5
			c0.7,0,1.4-0.1,2.1-0.2c2.3,1.2,4.7,2.1,7.4,2.5c3.2,4,7.3,11.2,7.3,22.2h4c0-14.6,7.2-22.6,10-25.1c1.3,0.4,2.6,0.6,4,0.6
			c6.1,0,11.3-4.1,12.9-9.6c9.9-2.4,17.3-11.3,17.3-21.9C145.2,69.4,141.5,62.7,135.8,58.6z"/>
	</defs>
	<clipPath id="SVGID_2_">
		<use xlink:href="#SVGID_1_"  style="overflow:visible;"/>
	</clipPath>
	<path class="st10" d="M140.8,58.6c0.3-1.1,0.5-2.3,0.5-3.5c0-7.5-6-13.5-13.5-13.5c-0.7,0-1.4,0.1-2.1,0.2c0.1-0.7,0.1-1.4,0.1-2.1
		c0-10.3-8.4-18.7-18.7-18.7c-9.4,0-17.1,6.9-18.4,15.9c-2.5-2.6-6-4.3-9.9-4.3c-7.5,0-13.5,6-13.5,13.5c0,0.3,0,0.7,0.1,1
		c-7,4.6-11.6,12.5-11.6,21.5c0,11.6,7.6,21.4,18.1,24.6c-0.1,0.6-0.1,1.2-0.1,1.8c0,7.5,6,13.5,13.5,13.5c0.7,0,1.4-0.1,2.1-0.2
		c2.3,1.2,3,4.3,5.6,4.7c3.2,4,4,9,4,20h9c0-14.6,7.2-22.6,10-25.1c1.3,0.4,2.6,0.6,4,0.6c6.1,0,11.3-4.1,12.9-9.6
		c9.9-2.4,17.3-11.3,17.3-21.9C150.2,69.4,146.5,62.7,140.8,58.6z"/>
</g>
<g>
	<path class="st11" d="M106,107c0.4-0.3,0.9-0.6,1.3-0.9c0.5,0.3,1,0.7,1.6,0.9H106z"/>
</g>
<g class="st12">
	<defs>
		<path id="SVGID_3_" class="st12" d="M135.8,58.6c0.3-1.1,0.5-2.3,0.5-3.5c0-7.5-6-13.5-13.5-13.5c-0.7,0-1.4,0.1-2.1,0.2
			c0.1-0.7,0.1-1.4,0.1-2.1c0-10.3-8.4-18.7-18.7-18.7c-9.4,0-17.1,6.9-18.4,15.9c-2.5-2.6-6-4.3-9.9-4.3c-7.5,0-13.5,6-13.5,13.5
			c0,0.3,0,0.7,0.1,1c-7,4.6-11.6,12.5-11.6,21.5c0,11.6,7.6,21.4,18.1,24.6c-0.1,0.6-0.1,1.2-0.1,1.8c0,7.5,6,13.5,13.5,13.5
			c0.7,0,1.4-0.1,2.1-0.2c2.3,1.2,4.7,2.1,7.4,2.5c3.2,4,7.3,11.2,7.3,22.2h4c0-14.6,7.2-22.6,10-25.1c1.3,0.4,2.6,0.6,4,0.6
			c6.1,0,11.3-4.1,12.9-9.6c9.9-2.4,17.3-11.3,17.3-21.9C145.2,69.4,141.5,62.7,135.8,58.6z M106,107c0.4-0.3,0.9-0.6,1.3-0.9
			c0.5,0.3,1,0.7,1.6,0.9H106z"/>
	</defs>
	<clipPath id="SVGID_4_">
		<use xlink:href="#SVGID_3_"  style="overflow:visible;"/>
	</clipPath>
	<g class="st13">
		<g>
			<circle class="st8" cx="80.8" cy="106" r="14"/>
		</g>
		<g>
			<circle class="st8" cx="112.8" cy="106" r="14"/>
		</g>
	</g>
</g>
<g>
	<path class="st5" d="M150.5,146h-107c-4.7,0-8.5-3.8-8.5-8.5v0c0-4.7,3.8-8.5,8.5-8.5h107c4.7,0,8.5,3.8,8.5,8.5v0
		C159,142.2,155.2,146,150.5,146z"/>
</g>
<g>
	<g>
		<circle class="st14" cx="82.8" cy="104" r="14"/>
	</g>
	<g>
		<circle class="st14" cx="114.8" cy="104" r="14"/>
	</g>
	<g>
		<circle class="st15" cx="85.8" cy="95" r="4"/>
	</g>
	<g>
		<circle class="st15" cx="117.8" cy="95" r="4"/>
	</g>
	<g>
		<circle class="st15" cx="88.8" cy="99" r="2"/>
	</g>
	<g>
		<circle class="st15" cx="120.8" cy="99" r="2"/>
	</g>
</g>
<g class="st16">
	<circle class="st15" cx="147" cy="56" r="3"/>
	<g>
		<circle class="st5" cx="146" cy="55" r="1"/>
	</g>
</g>
<g class="st16">
	<circle class="st15" cx="126" cy="37" r="3"/>
	<g>
		<circle class="st5" cx="125" cy="36" r="1"/>
	</g>
</g>
<g class="st16">
	<circle class="st15" cx="138" cy="99" r="2"/>
	<g>
		<circle class="st5" cx="137.3" cy="98.3" r="0.7"/>
	</g>
</g>
<g class="st16">
	<circle class="st15" cx="131" cy="77" r="2"/>
	<g>
		<circle class="st5" cx="130.3" cy="76.3" r="0.7"/>
	</g>
</g>
<g class="st16">
	<circle class="st15" cx="87" cy="42" r="2"/>
	<g>
		<circle class="st5" cx="86.3" cy="41.3" r="0.7"/>
	</g>
</g>
<g class="st16">
	<circle class="st15" cx="49" cy="84" r="2"/>
	<g>
		<circle class="st5" cx="48.3" cy="83.3" r="0.7"/>
	</g>
</g>
<g class="st16">
	<circle class="st15" cx="145" cy="90" r="1"/>
	<g>
		<circle class="st5" cx="144.7" cy="89.7" r="0.3"/>
	</g>
</g>
<g class="st16">
	<circle class="st15" cx="99" cy="75" r="1"/>
	<g>
		<circle class="st5" cx="98.7" cy="74.7" r="0.3"/>
	</g>
</g>
<g class="st16">
	<circle class="st15" cx="142" cy="118" r="4"/>
	<g>
		<circle class="st5" cx="140.7" cy="116.7" r="1.3"/>
	</g>
</g>
<g class="st16">
	<circle class="st15" cx="145" cy="105" r="4"/>
	<g>
		<circle class="st5" cx="143.7" cy="103.7" r="1.3"/>
	</g>
</g>
<g class="st16">
	<circle class="st15" cx="69" cy="70" r="4"/>
	<g>
		<circle class="st5" cx="67.7" cy="68.7" r="1.3"/>
	</g>
</g>
<g class="st16">
	<circle class="st15" cx="91" cy="126" r="4"/>
	<g>
		<circle class="st5" cx="89.7" cy="124.7" r="1.3"/>
	</g>
</g>
<g class="st16">
	<circle class="st15" cx="72" cy="120" r="4"/>
	<g>
		<circle class="st5" cx="70.7" cy="118.7" r="1.3"/>
	</g>
</g>
<g class="st16">
	<circle class="st15" cx="63" cy="48" r="4"/>
	<g>
		<circle class="st5" cx="61.7" cy="46.7" r="1.3"/>
	</g>
</g>
<g class="st16">
	<circle class="st15" cx="55" cy="95" r="3"/>
	<g>
		<circle class="st5" cx="54" cy="94" r="1"/>
	</g>
</g>
<g class="st16">
	<circle class="st15" cx="94" cy="21" r="3"/>
	<g>
		<circle class="st5" cx="93" cy="20" r="1"/>
	</g>
</g>
<g class="st16">
	<circle class="st15" cx="52" cy="111" r="3"/>
	<g>
		<circle class="st5" cx="51" cy="110" r="1"/>
	</g>
</g>
<g class="st16">
	<circle class="st15" cx="126" cy="52" r="3"/>
	<g>
		<circle class="st5" cx="125" cy="51" r="1"/>
	</g>
</g>
<g>
	<path class="st5" d="M150.5,146h-107c-4.7,0-8.5-3.8-8.5-8.5v0c0-4.7,3.8-8.5,8.5-8.5h107c4.7,0,8.5,3.8,8.5,8.5v0
		C159,142.2,155.2,146,150.5,146z"/>
</g>
<g>
	<defs>
		<path id="SVGID_5_" d="M153,131H97H41V69c0-30.9,25.1-56,56-56h0c30.9,0,56,25.1,56,56V131z"/>
	</defs>
	<clipPath id="SVGID_6_">
		<use xlink:href="#SVGID_5_"  style="overflow:visible;"/>
	</clipPath>
	<path class="st17" d="M134,27c0,0,8,29,7,119c-0.3,27,4,6,4,6S155,80,134,27z"/>
</g>
<path class="st18" d="M141.1,131c0,0,5.9,7,4.9,15h9c0,0,0-9-8.2-15C146.8,131,141.2,131,141.1,131z"/>
<path class="st6" d="M101.2,129c0,0,8.1,5,8.1,17H88.2c0-12,8.1-17,8.1-17H101.2z"/>
<g class="st7">
	<path class="st8" d="M96.3,129c0,0-8.1,5-8.1,17H91C90.4,140.2,91.6,134.6,96.3,129z"/>
</g>
<g>
	<g>
		<rect x="86.4" y="147" class="st19" width="3.2" height="7"/>
		<g>
			<rect x="86.7" y="147.5" class="st3" width="2.3" height="5.9"/>
		</g>
		<rect x="86.7" y="147.5" class="st20" width="0.9" height="5.9"/>
	</g>
	<g>
		<rect x="92.4" y="147" class="st19" width="3.2" height="7"/>
		<g>
			<rect x="92.7" y="147.5" class="st3" width="2.3" height="5.9"/>
		</g>
		<rect x="92.7" y="147.5" class="st20" width="0.9" height="5.9"/>
	</g>
	<g>
		<rect x="98.4" y="147" class="st19" width="3.2" height="7"/>
		<g>
			<rect x="98.7" y="147.5" class="st3" width="2.3" height="5.9"/>
		</g>
		<rect x="98.7" y="147.5" class="st20" width="0.9" height="5.9"/>
	</g>
	<g>
		<rect x="104.4" y="147" class="st19" width="3.2" height="7"/>
		<g>
			<rect x="104.7" y="147.5" class="st3" width="2.3" height="5.9"/>
		</g>
		<rect x="104.7" y="147.5" class="st20" width="0.9" height="5.9"/>
	</g>
</g>
<g>
	<path class="st0" d="M38,102c0,0,8,22,27,34c0,0-10-5-16,7s44,18,44,18s-26,20-36,41c0,0-57,0-57,0C0,164.4,14.2,131.5,38,102z"/>
</g>
<polygon class="st1" points="38,102 41,103.7 41,109 "/>
<g class="st9">
	<g>
		<path class="st8" d="M60.5,166c-5.8,0-10.5,4.7-10.5,10.5c0,5.8,4.7,10.5,10.5,10.5S71,182.3,71,176.5C71,170.7,66.3,166,60.5,166
			z M60.5,178.7c-1.2,0-2.2-1-2.2-2.2s1-2.2,2.2-2.2s2.2,1,2.2,2.2S61.7,178.7,60.5,178.7z"/>
	</g>
</g>
<g>
	<path class="st19" d="M62.5,164c-5.8,0-10.5,4.7-10.5,10.5c0,5.8,4.7,10.5,10.5,10.5S73,180.3,73,174.5C73,168.7,68.3,164,62.5,164
		z M62.5,176.7c-1.2,0-2.2-1-2.2-2.2s1-2.2,2.2-2.2s2.2,1,2.2,2.2S63.7,176.7,62.5,176.7z"/>
	<g class="st21">
		<defs>
			<path id="SVGID_7_" class="st21" d="M62.5,164c-5.8,0-10.5,4.7-10.5,10.5c0,5.8,4.7,10.5,10.5,10.5S73,180.3,73,174.5
				C73,168.7,68.3,164,62.5,164z M62.5,176.7c-1.2,0-2.2-1-2.2-2.2s1-2.2,2.2-2.2s2.2,1,2.2,2.2S63.7,176.7,62.5,176.7z"/>
		</defs>
		<clipPath id="SVGID_8_">
			<use xlink:href="#SVGID_7_"  style="overflow:visible;"/>
		</clipPath>
		<g class="st22">
			<polygon class="st15" points="63.5,170.3 64.7,160.4 68.3,162.2 64.3,171.2 62.9,170.9 			"/>
			<polygon class="st15" points="66.3,172.4 74.3,166.5 75.5,170.4 66.1,173.6 65.4,172.3 			"/>
			<polygon class="st15" points="66.6,175.8 76.4,177.8 74.3,181.2 65.6,176.6 66.1,175.1 			"/>
		</g>
	</g>
	<path class="st20" d="M62.5,170.2c-2.4,0-4.3,1.9-4.3,4.3c0,2.4,1.9,4.3,4.3,4.3s4.3-1.9,4.3-4.3C66.8,172.1,64.9,170.2,62.5,170.2
		z M62.5,176.7c-1.2,0-2.2-1-2.2-2.2s1-2.2,2.2-2.2s2.2,1,2.2,2.2S63.7,176.7,62.5,176.7z"/>
</g>
<path class="st23" d="M16,76c0,0-16,45-16,44s0-60,0-60S13,62,16,76z"/>
<g class="st9">
	<path class="st8" d="M187,202c0,0-24,4-25-83c0,0-9.7,23-32,27c0,0,13.5,6,14.5,19.4c1,13.5-52.5,1.6-52.5,1.6s11.6,11.6,13,35H187
		z"/>
</g>
<g>
	<path class="st0" d="M192,202c0,0-26,1-27-86c0,0-9.7,23-32,27c0,0,13.5,6,14.5,19.4c1,13.5-52.5,1.6-52.5,1.6s11.6,14.6,13,38H192
		z"/>
</g>
<g>
	<path class="st23" d="M165,116c1,87,27,86,27,86h-18C160.6,187.7,157.8,158.6,165,116z"/>
</g>
<g class="st9">
	<g>
		<path class="st8" d="M120.5,177c-5.8,0-10.5,4.7-10.5,10.5c0,5.8,4.7,10.5,10.5,10.5s10.5-4.7,10.5-10.5
			C131,181.7,126.3,177,120.5,177z M120.5,189.7c-1.2,0-2.2-1-2.2-2.2s1-2.2,2.2-2.2s2.2,1,2.2,2.2S121.7,189.7,120.5,189.7z"/>
	</g>
</g>
<g>
	<path class="st19" d="M122.5,175c-5.8,0-10.5,4.7-10.5,10.5c0,5.8,4.7,10.5,10.5,10.5s10.5-4.7,10.5-10.5
		C133,179.7,128.3,175,122.5,175z M122.5,187.7c-1.2,0-2.2-1-2.2-2.2s1-2.2,2.2-2.2s2.2,1,2.2,2.2S123.7,187.7,122.5,187.7z"/>
	<g class="st21">
		<defs>
			<path id="SVGID_9_" class="st21" d="M122.5,175c-5.8,0-10.5,4.7-10.5,10.5c0,5.8,4.7,10.5,10.5,10.5s10.5-4.7,10.5-10.5
				C133,179.7,128.3,175,122.5,175z M122.5,187.7c-1.2,0-2.2-1-2.2-2.2s1-2.2,2.2-2.2s2.2,1,2.2,2.2S123.7,187.7,122.5,187.7z"/>
		</defs>
		<clipPath id="SVGID_10_">
			<use xlink:href="#SVGID_9_"  style="overflow:visible;"/>
		</clipPath>
		<g class="st24">
			<polygon class="st15" points="123.5,181.3 124.7,171.4 128.3,173.2 124.3,182.2 122.9,181.9 			"/>
			<polygon class="st15" points="126.3,183.4 134.3,177.5 135.5,181.4 126.1,184.6 125.4,183.3 			"/>
			<polygon class="st15" points="126.6,186.8 136.4,188.8 134.3,192.2 125.6,187.6 126.1,186.1 			"/>
		</g>
	</g>
	<path class="st20" d="M122.5,181.2c-2.4,0-4.3,1.9-4.3,4.3c0,2.4,1.9,4.3,4.3,4.3s4.3-1.9,4.3-4.3
		C126.8,183.1,124.9,181.2,122.5,181.2z M122.5,187.7c-1.2,0-2.2-1-2.2-2.2s1-2.2,2.2-2.2s2.2,1,2.2,2.2S123.7,187.7,122.5,187.7z"
		/>
</g>
</svg>
