<?xml version="1.0" encoding="utf-8"?>
<!-- Generator: Adobe Illustrator 21.0.0, SVG Export Plug-In . SVG Version: 6.00 Build 0)  -->
<svg version="1.1" id="Calque_1" xmlns="http://www.w3.org/2000/svg" xmlns:xlink="http://www.w3.org/1999/xlink" x="0px" y="0px"
	 viewBox="0 0 266 230.4" style="enable-background:new 0 0 266 230.4;" xml:space="preserve">
<style type="text/css">
	.st0{fill:#FFFFFF;}
	.st1{fill:#607D8B;}
	.st2{fill:#05AFF2;}
	.st3{fill:#FFFFFF;stroke:#607D8B;stroke-width:9.6106;stroke-miterlimit:10;}
	.st4{fill:#E94949;}
</style>
<g>
	<polygon class="st0" points="10.3,223.8 133,11.3 255.7,223.8 	"/>
	<path class="st1" d="M133,21l57.2,99l57.2,99H133H18.6l57.2-99L133,21 M133,1.7L67.5,115.2L2,228.6h131h131l-65.5-113.4L133,1.7
		L133,1.7z"/>
</g>
<g>
	<path class="st2" d="M133,223.6c-38.6,0-69.9-31.4-69.9-69.9c0-38.6,31.4-69.9,69.9-69.9s69.9,31.4,69.9,69.9
		C202.9,192.2,171.6,223.6,133,223.6z"/>
	<path class="st1" d="M133,88.5c35.9,0,65.1,29.2,65.1,65.1s-29.2,65.1-65.1,65.1s-65.1-29.2-65.1-65.1S97.1,88.5,133,88.5
		 M133,78.9c-41.3,0-74.7,33.5-74.7,74.7s33.5,74.7,74.7,74.7s74.7-33.5,74.7-74.7S174.3,78.9,133,78.9L133,78.9z"/>
</g>
<line class="st3" x1="133" y1="10.5" x2="133" y2="227.8"/>
<g>
	<path class="st4" d="M128,218.2c-34,0-62.6-28.9-62.6-64.6S94,89.1,128,89.1V218.2z"/>
</g>
<line class="st3" x1="133" y1="10.5" x2="133" y2="227.8"/>
</svg>
