<?xml version="1.0" encoding="utf-8"?>
<!-- Generator: Adobe Illustrator 21.0.0, SVG Export Plug-In . SVG Version: 6.00 Build 0)  -->
<svg version="1.1" id="Calque_1" xmlns="http://www.w3.org/2000/svg" xmlns:xlink="http://www.w3.org/1999/xlink" x="0px" y="0px"
	 viewBox="0 0 861.8 901" style="enable-background:new 0 0 861.8 901;" xml:space="preserve">
<style type="text/css">
	.st0{clip-path:url(#SVGID_2_);}
	.st1{fill:#F2994B;}
	.st2{fill:#DB739C;}
	.st3{fill:#FC7EAC;}
	.st4{clip-path:url(#SVGID_4_);fill:#DB739C;}
	.st5{fill:#242323;}
	.st6{fill:#FFFFFF;}
	.st7{clip-path:url(#SVGID_6_);fill:#DB739C;}
</style>
<g>
	<defs>
		<rect id="SVGID_1_" width="861.8" height="902.6"/>
	</defs>
	<clipPath id="SVGID_2_">
		<use xlink:href="#SVGID_1_"  style="overflow:visible;"/>
	</clipPath>
	<g class="st0">
		<circle class="st1" cx="830.3" cy="451.3" r="433.9"/>
		<g>
			<g>
				<g>
					<g>
						<g>
							<g>
								<path class="st2" d="M408.1,439.2c-27.9,19.4-111.9,11.4-160-57.8s-126.6-107.9-98.7-127.2s147.8,2.5,195.9,71.7
									C393.4,395.1,436,419.9,408.1,439.2z"/>
								<path class="st3" d="M862.3,902.2c0,0,36.5-100.7-183.7-177.8c-115.1-40.3-174.7-178.6-174.7-178.6L192.7,837.5
									c-56.2,13.5-77.3,38.5-81.1,65.1"/>
								<g>
									<g>
										<defs>
											<path id="SVGID_3_" d="M862.3,902.2c0,0,36.5-100.7-183.7-177.8c-115.1-40.3-174.7-178.6-174.7-178.6L192.7,837.5
												c-56.2,13.5-77.3,38.5-81.1,65.1"/>
										</defs>
										<clipPath id="SVGID_4_">
											<use xlink:href="#SVGID_3_"  style="overflow:visible;"/>
										</clipPath>
										<path class="st4" d="M327.5,423.7C246.3,578,44.6,574.7,44.6,705.9c0,146.5,225.2,172.6,284.6,172.6c1.5,0,2.8,0,4.2,0
											c1,0,2.1,0,3.1,0c115.3,0,204.8-56.1,204.8-171.4c0-10.9-22.1-139.7-23.7-150.2C545.9,366.6,389.7,305.5,327.5,423.7z"/>
									</g>
									<path class="st3" d="M304.2,417.2C223,571.4,21.3,568.1,21.3,699.4c0,146.5,225.2,172.6,284.6,172.6c1.5,0,2.8,0,4.2,0
										c1,0,2.1,0,3.1,0c115.3,0,204.8-56.1,204.8-171.4c0-10.9-0.8-21.6-2.5-32C543.8,478.2,366.4,299,304.2,417.2z"/>
									<ellipse class="st2" cx="300.3" cy="649.8" rx="109.6" ry="108.1"/>
									<g>
										<circle class="st5" cx="293" cy="640.4" r="106.7"/>
										<circle class="st6" cx="325.9" cy="587.3" r="25.6"/>
										<circle class="st6" cx="360.1" cy="626" r="9.9"/>
									</g>
									<path class="st3" d="M383.7,316.4c0,0,23.6,128.4,53.9,173.5s-179.9,2.2-179.9,2.2s50.5-115.8,35.7-121.6
										c-14.8-5.8,24.5-63.4,24.5-63.4L383.7,316.4z"/>
									<g>
										<g>
											<defs>
												<path id="SVGID_5_" d="M383.7,316.4c0,0,23.6,128.4,53.9,173.5s-179.9,2.2-179.9,2.2s50.5-115.8,35.7-121.6
													c-14.8-5.8,24.5-63.4,24.5-63.4L383.7,316.4z"/>
											</defs>
											<clipPath id="SVGID_6_">
												<use xlink:href="#SVGID_5_"  style="overflow:visible;"/>
											</clipPath>
											<path class="st7" d="M375.7,287.3c0,0-1.2-57.3,29.1-12.2c11.2,16.7-23.7,104.8-53.2,128.9c-50.1,41-92.5,62.6-92.5,62.6
												s41-119.4,26.2-125.3c-14.8-5.8,24.5-63.4,24.5-63.4L375.7,287.3z"/>
										</g>
										<path class="st3" d="M383.4,309.5c10.6,32.3-19.5,89.4-99.7,115.6c-80.2,26.2-139.7,90.2-150.2,58s44.9-140.9,125-167.1
											S372.8,277.1,383.4,309.5z"/>
										<polygon class="st2" points="983.6,729.7 974.8,735.3 981.6,743.2 972.4,747.9 978.3,756.4 968.7,760.2 973.8,769.3 
											963.9,772.2 968.2,781.6 958,783.7 961.4,793.4 951,794.5 953.5,804.6 943.1,804.7 944.6,814.9 934.3,814 934.8,824.4 
											924.6,822.5 924.2,832.8 914.2,830 912.8,840.3 903.1,836.5 900.7,846.7 891.4,842 888.1,851.8 879.3,846.4 875.1,855.8 
											866.9,849.6 861.8,858.6 854.1,851.6 848.2,860.1 841.3,852.4 834.6,860.4 828.4,852 821,859.3 815.7,850.4 807.6,856.9 
											803.1,847.6 794.5,853.4 790.8,843.7 781.7,848.6 779,838.6 769.5,842.7 767.7,832.4 757.8,835.6 757,825.3 746.9,827.4 
											747.1,817 736.8,818.3 738,808 727.5,808.3 729.7,798.2 719.3,797.4 722.4,787.5 712.1,785.9 716.1,776.3 706.1,773.7 
											710.9,764.5 701.2,761 706.9,752.3 697.5,747.9 703.9,739.8 695,734.5 702.3,727 693.8,720.9 701.8,714.1 694,707.3 
											702.4,701.3 695.3,693.7 704.3,688.6 698,680.3 707.4,676 701.8,667.3 711.7,663.9 706.9,654.6 717,652.2 713.1,642.5 
											723.4,641.1 720.5,631.1 730.8,630.5 728.9,620.3 739.3,620.8 738.2,610.4 748.5,611.9 748.4,601.5 758.6,603.9 
											759.5,593.5 769.3,596.8 771.2,586.6 780.7,590.8 783.5,580.8 792.6,585.9 796.4,576.2 805,582.1 809.6,572.8 
											817.5,579.5 823,570.7 830.3,578.1 836.6,569.8 843.2,577.9 850.2,570.2 856,578.9 863.8,571.9 868.7,581.1 877,574.9 
											881.1,584.4 890,579 893.2,589 902.5,584.4 904.8,594.6 914.5,590.9 915.8,601.3 925.8,598.6 926.1,609 936.3,607.2 
											935.7,617.6 946,616.8 944.3,627 954.7,627.3 952.1,637.3 962.5,638.5 958.9,648.2 969.1,650.3 964.7,659.7 974.6,662.8 
											969.3,671.8 978.9,675.8 972.8,684.1 982,689 975.1,696.8 983.8,702.5 976.2,709.6 984.3,716.1 976.1,722.5 										"/>
										<polygon class="st3" points="974.8,726.1 966.1,731.7 972.9,739.5 963.6,744.3 969.6,752.8 959.9,756.6 965.1,765.6 
											955.1,768.5 959.5,778 949.2,780 952.6,789.8 942.3,790.8 944.8,800.9 934.4,801 935.9,811.3 925.5,810.3 926.1,820.7 
											915.9,818.9 915.4,829.2 905.4,826.4 904.1,836.7 894.4,832.9 892,843 882.7,838.4 879.4,848.2 870.6,842.7 866.3,852.2 
											858.1,845.9 853,855 845.4,847.9 839.5,856.5 832.6,848.7 825.9,856.7 819.7,848.3 812.3,855.6 806.9,846.7 798.8,853.3 
											794.3,844 785.7,849.7 782.1,840 773,845 770.3,834.9 760.7,839 759,828.8 749.1,832 748.3,821.6 738.2,823.8 
											738.3,813.4 728,814.7 729.2,804.4 718.8,804.7 720.9,794.5 710.6,793.8 713.6,783.9 703.4,782.2 707.4,772.7 
											697.3,770.1 702.2,760.9 692.4,757.3 698.1,748.7 688.7,744.2 695.2,736.1 686.2,730.8 693.5,723.4 685.1,717.3 
											693,710.5 685.2,703.6 693.7,697.7 686.5,690.1 695.6,684.9 689.2,676.7 698.6,672.4 693.1,663.7 702.9,660.2 698.1,651 
											708.2,648.6 704.4,638.9 714.6,637.5 711.7,627.5 722.1,626.9 720.1,616.7 730.5,617.1 729.5,606.8 739.8,608.2 
											739.7,597.8 749.8,600.2 750.8,589.8 760.6,593.2 762.5,583 772,587.1 774.8,577.2 783.9,582.3 787.6,572.6 796.2,578.5 
											800.9,569.1 808.8,575.8 814.3,567 821.6,574.5 827.9,566.2 834.4,574.2 841.5,566.6 847.3,575.3 855.1,568.3 860,577.4 
											868.3,571.3 872.4,580.8 881.3,575.4 884.5,585.3 893.8,580.8 896.1,590.9 905.7,587.3 907,597.6 917,594.9 917.3,605.3 
											927.6,603.5 926.9,613.9 937.3,613.1 935.6,623.4 946,623.6 943.4,633.7 953.7,634.8 950.2,644.6 960.4,646.7 
											955.9,656.1 965.8,659.2 960.6,668.1 970.2,672.1 964.1,680.5 973.2,685.4 966.3,693.2 975.1,698.8 967.5,706 
											975.6,712.5 967.3,718.9 										"/>
									</g>
								</g>
							</g>
						</g>
					</g>
				</g>
			</g>
		</g>
	</g>
</g>
</svg>
