<?xml version="1.0" encoding="utf-8"?>
<!-- Generator: Adobe Illustrator 21.1.0, SVG Export Plug-In . SVG Version: 6.00 Build 0)  -->
<svg version="1.1" id="Calque_1" xmlns="http://www.w3.org/2000/svg" xmlns:xlink="http://www.w3.org/1999/xlink" x="0px" y="0px"
	 viewBox="0 0 880 560" style="enable-background:new 0 0 880 560;" xml:space="preserve">
<style type="text/css">
	.st0{fill:#FFFFFF;}
</style>
<path class="st0" d="M703.1,227.8L703.1,227.8H597.9V17.5H492.7v210.3h-23.5h-81.6H282.4H177.3c-29,0-52.6-23.5-52.6-52.6v0
	c0-29,23.5-52.6,52.6-52.6h105.2v78.9h105.2v-184H282.4v0H177.3c0,0,0,0,0,0c-87.1,0-157.7,70.6-157.7,157.7v0
	c0,87.1,70.6,157.7,157.7,157.7h0h105.2v210.3h105.2V333h68h37.1h105.2h44.5h60.6c29,0,52.6,23.5,52.6,52.6v0
	c0,29-23.5,52.6-52.6,52.6H597.9v-78.9H492.7v184h105.2v0H703c0,0,0,0,0,0c87.1,0,157.7-70.6,157.7-157.7v0
	C860.8,298.4,790.2,227.8,703.1,227.8z"/>
</svg>
