<?xml version="1.0" encoding="utf-8"?>
<!-- Generator: Adobe Illustrator 21.1.0, SVG Export Plug-In . SVG Version: 6.00 Build 0)  -->
<svg version="1.1" id="Calque_1" xmlns="http://www.w3.org/2000/svg" xmlns:xlink="http://www.w3.org/1999/xlink" x="0px" y="0px"
	 viewBox="0 0 1051.6 736.6" style="enable-background:new 0 0 1051.6 736.6;" xml:space="preserve">
<style type="text/css">
	.st0{fill:#5D89A9;}
</style>
<path class="st0" d="M788.9,316.1L788.9,316.1H683.7V105.8H578.5v210.3H555h-81.6H368.2H263c-29,0-52.6-23.5-52.6-52.6v0
	c0-29,23.5-52.6,52.6-52.6h105.2v78.9h105.2v-184H368.2v0H263.1c0,0,0,0,0,0c-87.1,0-157.7,70.6-157.7,157.7v0
	c0,87.1,70.6,157.7,157.7,157.7h0h105.2v210.3h105.2V421.2h68h37.1h105.2h44.5h60.6c29,0,52.6,23.5,52.6,52.6v0
	c0,29-23.5,52.6-52.6,52.6H683.7v-78.9H578.5v184h105.2v0h105.1c0,0,0,0,0,0c87.1,0,157.7-70.6,157.7-157.7v0
	C946.6,386.7,876,316.1,788.9,316.1z"/>
</svg>
